<svg width="162" height="20" viewBox="0 0 162 20" fill="none" xmlns="http://www.w3.org/2000/svg">
<path d="M6.742 20V10.877H9.80399L10.262 7.322H6.742V5.05201C6.742 4.02201 7.027 3.32103 8.504 3.32103L10.386 3.32002V0.140028C9.47499 0.0440276 8.55901 -0.00298708 7.64301 1.29179e-05C4.92901 1.29179e-05 3.07001 1.65703 3.07001 4.70003V7.322H0V10.877H3.07001V20H6.742Z" fill="white"/>
<path d="M84 3.15701C83.173 3.51701 82.299 3.75501 81.404 3.86401C82.348 3.29701 83.055 2.406 83.395 1.354C82.508 1.885 81.537 2.25899 80.524 2.45999C79.847 1.72199 78.945 1.231 77.961 1.064C76.976 0.895995 75.964 1.062 75.083 1.535C74.202 2.008 73.503 2.761 73.094 3.677C72.685 4.593 72.59 5.619 72.824 6.595C71.03 6.504 69.276 6.03401 67.675 5.21701C66.073 4.40001 64.661 3.25299 63.529 1.85199C63.132 2.54899 62.923 3.33801 62.924 4.14001C62.923 4.88601 63.105 5.62002 63.454 6.27802C63.803 6.93602 64.309 7.497 64.926 7.91C64.209 7.891 63.507 7.69698 62.88 7.34698V7.40201C62.885 8.44701 63.25 9.457 63.911 10.263C64.572 11.069 65.491 11.62 66.51 11.824C66.118 11.944 65.71 12.007 65.3 12.012C65.016 12.009 64.733 11.983 64.453 11.935C64.743 12.833 65.305 13.619 66.06 14.181C66.815 14.744 67.726 15.056 68.666 15.075C67.079 16.33 65.119 17.015 63.1 17.02C62.732 17.022 62.365 16.999 62 16.954C64.062 18.292 66.465 19.002 68.919 18.999C70.613 19.017 72.293 18.695 73.861 18.053C75.43 17.411 76.856 16.461 78.055 15.259C79.254 14.056 80.203 12.626 80.846 11.051C81.489 9.47599 81.813 7.789 81.8 6.086C81.8 5.898 81.8 5.699 81.8 5.5C82.663 4.853 83.408 4.06001 84 3.15701Z" fill="white"/>
<path d="M161.994 7.34399C162.052 5.67799 161.683 4.02499 160.919 2.53799C160.401 1.92799 159.682 1.51599 158.888 1.37399C155.601 1.08099 152.302 0.960006 149.002 1.01401C145.715 0.958006 142.427 1.074 139.152 1.363C138.505 1.479 137.905 1.778 137.428 2.224C136.365 3.19 136.247 4.842 136.129 6.238C135.957 8.749 135.957 11.268 136.129 13.779C136.163 14.565 136.281 15.345 136.483 16.106C136.625 16.694 136.913 17.237 137.321 17.688C137.802 18.158 138.416 18.474 139.081 18.596C141.627 18.906 144.193 19.034 146.758 18.98C150.892 19.038 154.518 18.98 158.805 18.654C159.487 18.54 160.118 18.223 160.612 17.747C160.943 17.421 161.19 17.022 161.333 16.583C161.755 15.306 161.962 13.97 161.947 12.627C161.994 11.975 161.994 8.04199 161.994 7.34399ZM146.333 13.325V6.12201L153.325 9.741C151.364 10.811 148.778 12.022 146.333 13.325Z" fill="white"/>
</svg>
